- 
http://www.Speed.Cd      fast  and The Hottest Private Tracker on the net

   signup is open now

Please Seed back to make the speed Faster!!!

------------------nfo--------------------------


[color=blue][size=5][b]Colombiana.2011.BDRip.XVID.AC3.HQ.Hive-CM8[/b][/size][/color]


[b]Thx Hive

CM8 Doing It Right The First Time :D

Source: Bluray

Video: 720x304 @bitrate 1800 2pass
Audio: English DTS to AC3 5.1 @448
Sample: yes included
Subs: yes english hardcoded for foreign parts only
full subs in srt /subs[/b]


[url]http://www.imdb.com/title/tt1657507/[/url]


General
Complete name                  : Colombiana.2011.BDRip.XVID.AC3.HQ.Hive-CM8.avi
Format                         : AVI
Format/Info                    : Audio Video Interleave
File size                      : 1.62 GiB
Duration                       : 1h 43mn
Overall bit rate               : 2 237 Kbps
Writing application            : Nandub v1.0rc2
Writing library                : Nandub build 1853/release

Video
ID                             : 0
Format                         : MPEG-4 Visual
Format profile                 : Advanced Simple@L5
Format settings, BVOP          : 1
Format settings, QPel          : Yes
Format settings, GMC           : No warppoints
Format settings, Matrix        : Default (H.263)
Muxing mode                    : Packed bitstream
Codec ID                       : XVID
Codec ID/Hint                  : XviD
Duration                       : 1h 43mn
Bit rate                       : 1 779 Kbps
Width                          : 720 pixels
Height                         : 304 pixels
Display aspect ratio           : 2.35:1
Frame rate                     : 25.000 fps
Color space                    : YUV
Chroma subsampling             : 4:2:0
Bit depth                      : 8 bits
Scan type                      : Progressive
Compression mode               : Lossy
Bits/(Pixel*Frame)             : 0.325
Stream size                    : 1.29 GiB (80%)
Writing library                : XviD 1.2.1 (UTC 2008-12-04)

Audio
ID                             : 1
Format                         : AC-3
Format/Info                    : Audio Coding 3
Mode extension                 : CM (complete main)
Codec ID                       : 2000
Duration                       : 1h 43mn
Bit rate mode                  : Constant
Bit rate                       : 448 Kbps
Channel(s)                     : 6 channels
Channel positions              : Front: L C R, Side: L R, LFE
Sampling rate                  : 48.0 KHz
Bit depth                      : 16 bits
Compression mode               : Lossy
Stream size                    : 332 MiB (20%)
Alignment                      : Split accross interleaves
Interleave, duration           : 40 ms (1.00 video frame)
Interleave, preload duration   : 500 ms


Plot:

A young woman grows up to be a stone-cold assassin after witnessing her parents' murder as a child in Bogota. 
She works for her uncle as a hitman by day, but her personal time is spent engaging in vigilante murders 
that she hopes will lead her to her ultimate target - the mobster responsible for her parents' death.

Cast:

Zoe Saldana	... 	Cataleya Restrepo
Amandla Stenberg ... 	Young Cataleya Restrepo
Michael Vartan	... 	Danny Delanay
Cliff Curtis	... 	Emilio Restrepo
Callum Blue	... 	Richard



[img]http://img59.imageshack.us/img59/6329/73775701.png[/img]
[img]http://img543.imageshack.us/img543/7893/cocoa.png[/img]
[img]http://img64.imageshack.us/img64/9292/cococo.png[/img]
[img]http://img696.imageshack.us/img696/2522/cocococo.png[/img]
[img]http://img840.imageshack.us/img840/5752/cococococo.png[/img]
[img]http://img17.imageshack.us/img17/8351/cocococococo.png[/img]
[img]http://img683.imageshack.us/img683/5665/cococococococo.png[/img]




Greetz

ViSiON,SPK,SiC,SANTi,3LT0N,FUSiON,YanKeeS,MAGNET,THC,T0XiC,LKRG,Feel-Free,FLAWL3SS,
WBZ,ZMG,BHRG,NOVA,D2U,Vik,Rapeseed,SAFC,goldadvance,MEMORY100,KaN1vE,Unevano,Pinnz,Wayne
Mr Hive,and most P2P groups
Great Work Guys :D


LOOKING FOR ANYTHING YOU WANT TO LOOK AND SOUND BETTER

CM8@hushmail.com